<?xml version="1.0" encoding="UTF-8"?>
<svg width="32" height="32" viewBox="0 0 32 32" fill="none" xmlns="http://www.w3.org/2000/svg">
  <!-- Corpo do carro -->
  <path d="M24 12H8C6.89543 12 6 12.8954 6 14V22C6 23.1046 6.89543 24 8 24H24C25.1046 24 26 23.1046 26 22V14C26 12.8954 25.1046 12 24 12Z" fill="#dc004e"/>
  
  <!-- Capô do carro -->
  <path d="M26 14H6V12C6 10.8954 6.89543 10 8 10H24C25.1046 10 26 10.8954 26 12V14Z" fill="#dc004e"/>
  
  <!-- Para-brisa -->
  <path d="M24 10H8C7.44772 10 7 9.55228 7 9C7 8.44772 7.44772 8 8 8H24C24.5523 8 25 8.44772 25 9C25 9.55228 24.5523 10 24 10Z" fill="#dc004e"/>
  
  <!-- Faróis -->
  <circle cx="8" cy="14" r="2" fill="#FFD700"/>
  <circle cx="24" cy="14" r="2" fill="#FFD700"/>
  
  <!-- Rodas -->
  <circle cx="9" cy="22" r="3" fill="#333333"/>
  <circle cx="23" cy="22" r="3" fill="#333333"/>
  
  <!-- Detalhes -->
  <path d="M12 16H20" stroke="white" stroke-width="1.5" stroke-linecap="round"/>
  <path d="M12 18H20" stroke="white" stroke-width="1.5" stroke-linecap="round"/>
</svg> 